<?xml version="1.0" encoding="utf-8"?>
<!DOCTYPE svg PUBLIC "-//W3C//DTD SVG 1.0//EN" "http://www.w3.org/TR/2001/REC-SVG-20010904/DTD/svg10.dtd">
<svg version="1.0" xmlns="http://www.w3.org/2000/svg" width="1024px" height="382px" viewBox="0 0 1024 382" preserveAspectRatio="xMidYMid meet">
 <g fill="#000000">
  <path d="M110 200.6 l0 -58.6 24.4 0 c13.4 0 26.7 0.5 29.6 1 12.8 2.4 23.7 10.5 28.5 21.1 2.5 5.6 2.7 6.9 2.3 15.8 -0.5 11.8 -3 17.4 -11.2 24.9 -8.3 7.5 -21.4 11 -35.7 9.5 l-5.6 -0.6 -0.2 -6.5 c-0.1 -3.6 0.1 -7.9 0.5 -9.7 l0.6 -3.1 5.7 0.4 c8.1 0.6 16.3 -1.9 19.1 -5.8 6.1 -8.6 3.8 -20 -5 -24.5 -2.8 -1.4 -25.8 -3 -29 -2 -2.1 0.7 -2.1 0.9 -1.4 24.8 0.4 13.3 0.3 31.3 -0.1 40 l-0.7 15.8 -10 7.7 c-5.5 4.2 -10.4 7.9 -10.9 8 -0.5 0.2 -0.9 -23.3 -0.9 -58.2z"/>
  <path d="M204 203.1 l0 -37.8 8.7 -0.5 c12.8 -0.7 13.3 -0.5 13.3 4.9 l0 4.5 3.7 -3.2 c4.5 -4 9.2 -6 16.1 -7 l5.2 -0.7 0 10.4 0 10.3 -3.7 0 c-9.6 0 -18 5.7 -20.2 13.5 -0.6 2.3 -1.1 12.4 -1.1 23.8 l0 19.7 -11 0 -11 0 0 -37.9z"/>
  <path d="M257.8 240.3 c-0.2 -0.5 -0.2 -17.6 0 -38 l0.3 -37.3 10.9 0 11 0 0 38 0 38 -10.9 0 c-6.1 0 -11.1 -0.3 -11.3 -0.7z"/>
  <path d="M293 203 l0 -38 11 0 11 0 0 3.5 0 3.5 4.6 -2.9 c6 -3.9 13.1 -5.5 21.8 -4.9 8.3 0.6 13.8 3 18.3 8.2 l3.1 3.4 3.2 -3.3 c5.6 -5.7 12 -8 23 -8 11.3 0 16.5 1.9 22.8 8.4 7 7.2 7.5 9.9 8 40.9 l0.4 27.2 -11.6 0 -11.5 0 -0.3 -24.7 c-0.3 -22.7 -0.5 -25.1 -2.3 -27.7 -5.6 -8.3 -20.7 -6.9 -25.4 2.3 -1.9 3.7 -2.1 5.8 -2.1 27.1 l0 23 -11 0 -11 0 0 -24.2 c0 -22.5 -0.2 -24.5 -2 -27.6 -2.4 -3.9 -5.4 -5.2 -11.9 -5.2 -5.7 0 -10.5 2.8 -13.5 8 -1.9 3.2 -2.1 5.4 -2.4 26.3 l-0.4 22.7 -10.9 0 -10.9 0 0 -38z"/>
  <path d="M457 239.4 c-14.7 -4 -24.9 -14.8 -28 -29.9 -3.6 -17.2 5 -34.2 21 -41.9 6.2 -2.9 7.1 -3.1 18.5 -3.1 11.6 0 12.3 0.1 18.7 3.3 12.3 6 18.5 16.2 19.5 31.8 l0.6 8.2 -9.4 0.7 c-5.2 0.4 -17.8 0.5 -28.2 0.3 -13.2 -0.2 -18.7 0 -18.7 0.8 0 2.6 4.8 8.1 9 10.2 8.2 4.1 24.3 2.4 28.9 -3.1 0.7 -1 1.7 -1.7 2.1 -1.7 0.4 0 3.1 3.2 5.9 7.1 6 8.2 5.9 8.5 -2.7 13.2 -10.2 5.5 -25.5 7.2 -37.2 4.1z m28.2 -46.5 c-0.4 -3 -3 -6.6 -6.5 -9.3 -4.2 -3.1 -14.2 -3.4 -19.6 -0.7 -4.5 2.3 -8.1 7.2 -8.1 10.9 l0 2.4 17.3 -0.5 17.2 -0.5 -0.3 -2.3z"/>
 </g>
 <g fill="#d0a449">
  <path d="M279.5 203 c0 -21.2 0.1 -29.8 0.2 -19.3 0.2 10.6 0.2 28 0 38.5 -0.1 10.6 -0.2 2 -0.2 -19.2z"/>
  <path d="M397 240.3 c0 -0.5 4.9 -0.7 11 -0.5 l11 0.3 0.3 -24.8 0.2 -24.8 0.3 25.3 0.2 25.2 -11.5 0 c-6.3 0 -11.5 -0.3 -11.5 -0.7z"/>
  <path d="M463.3 240.3 c0.9 -0.2 2.5 -0.2 3.5 0 0.9 0.3 0.1 0.5 -1.8 0.5 -1.9 0 -2.7 -0.2 -1.7 -0.5z"/>
  <path d="M893.1 239 c-6.3 -1.5 -12.4 -8.3 -12 -13.3 0.1 -1.2 0.1 -12.4 0.1 -24.8 l-0.2 -22.6 -3.7 0.3 c-5.1 0.4 -7.2 -0.9 -6.6 -4.1 0.6 -2.7 0.8 -2.8 6.6 -2.5 3.4 0.1 3.7 -0.1 3.8 -2.7 0.1 -1.5 0 -3.8 0 -5 -0.3 -2.7 1.1 -3.5 4.3 -2.7 2.1 0.5 2.5 1.2 2.8 5.2 l0.3 4.6 10.5 0.1 10.5 0 0.9 2.7 c1.5 4.4 1.3 4.4 -16.5 4.7 l-5.7 0.1 -0.1 20.1 c-0.2 26.3 0.3 29.5 4.3 32 3.5 2.2 10.6 2.5 13.6 0.7 1.5 -1 2.5 -1 3.8 -0.2 2.5 1.6 2.1 4.7 -0.8 6 -3.5 1.6 -11.9 2.3 -15.9 1.4z"/>
  <path d="M543.7 238.3 c-0.4 -0.3 -0.7 -20.8 -0.7 -45.5 0 -39.4 0.2 -44.9 1.5 -45.5 2.6 -0.9 4.9 2.2 10.7 14 8.7 17.8 19.8 40.1 20.8 41.7 0.4 0.8 1.8 3.6 2.9 6.3 1.2 2.6 2.4 4.7 2.9 4.7 0.6 -0.1 6.3 -11.5 12.5 -25 0.7 -1.4 1.4 -2.7 1.7 -3 0.3 -0.3 1 -1.6 1.6 -3 0.6 -1.4 3.2 -6.7 5.8 -11.7 2.5 -5.1 4.3 -9.3 4 -9.3 -0.3 0 0.3 -1.2 1.4 -2.7 1.1 -1.6 2.2 -3.8 2.6 -5 1.8 -5.9 7.6 -9.4 9.1 -5.5 1 2.5 0.6 88.5 -0.4 89.5 -0.5 0.5 -1.9 0.7 -3.2 0.5 l-2.4 -0.3 0 -36.2 c0 -20 -0.2 -36.3 -0.6 -36.3 -0.3 0 -1 1 -1.6 2.3 -4.1 8.7 -5.9 12.2 -6.5 12.5 -0.5 0.2 -0.8 0.9 -0.8 1.6 0 0.7 -2.5 6 -5.5 11.9 -3.1 5.9 -5.3 11.3 -4.9 11.9 0.4 0.7 0.3 0.8 -0.4 0.4 -0.7 -0.4 -1.2 -0.3 -1.2 0.3 0 0.5 -2.1 5.3 -4.6 10.6 -3.8 8.1 -4.9 9.6 -6.6 9.3 -1.2 -0.2 -2.4 -1 -2.8 -1.8 -0.4 -0.8 -1.5 -3.1 -2.5 -5 -4.7 -9.2 -6.8 -13.4 -12.3 -24.5 -3.2 -6.6 -6.3 -12.9 -6.9 -14 -0.6 -1.1 -2.4 -4.8 -4 -8.2 -1.5 -3.5 -3.1 -6.3 -3.6 -6.3 -0.4 0 -0.7 15.8 -0.7 35 0.1 19.3 -0.2 35.5 -0.5 36 -0.7 1.1 -3.8 1.3 -4.8 0.3z"/>
  <path d="M654.9 237.6 c-10.7 -3.4 -19.2 -14.6 -21.2 -27.9 -1 -7.3 -1 -8.4 1.2 -14.5 1.2 -3.7 3.4 -8.1 4.7 -9.8 1.3 -1.7 2 -3.5 1.6 -3.9 -0.4 -0.5 -0.2 -0.5 0.5 -0.2 0.6 0.4 1.3 0.4 1.5 0 0.1 -0.5 2.2 -2.3 4.6 -4.1 4.7 -3.6 12.8 -6.2 19.8 -6.2 5.3 0 13.9 2.6 17.3 5.2 1.3 1 2.8 1.5 3.4 1.1 0.5 -0.3 0.7 -0.2 0.4 0.4 -0.4 0.6 0.5 2.1 1.8 3.3 l2.5 2.3 0 -4 c0 -2.3 0.3 -4.8 0.6 -5.7 0.7 -1.9 4.7 -2.1 6.2 -0.3 1.5 1.7 0.9 63.4 -0.5 64.8 -0.6 0.6 -2.1 0.9 -3.4 0.7 -1.9 -0.2 -2.4 -0.9 -2.5 -3.3 0 -1.6 -0.2 -4.1 -0.3 -5.5 l-0.2 -2.5 -1.6 2.3 c-0.8 1.2 -2 2.2 -2.6 2.2 -0.6 0 -2 0.9 -3.1 1.9 -5 4.6 -21.6 6.6 -30.7 3.7z m20.4 -6.6 c2.9 -1.1 6.3 -2.9 7.5 -4 1.2 -1.1 2.5 -2 3.1 -2 2.1 0 6.3 -9.4 7.3 -16.4 0.8 -6.4 0.7 -7.8 -1.3 -13 -2.5 -6.7 -7.6 -13 -11.9 -14.5 -1.7 -0.5 -3 -0.7 -3 -0.3 0 0.4 -0.4 0 -1 -0.8 -1.5 -2.4 -14.5 -1.9 -20 0.8 -5.3 2.6 -11.4 7.8 -10.6 9.1 0.3 0.5 0 1.1 -0.7 1.4 -0.8 0.3 -2.2 3 -3.1 6.1 -2.3 7.3 -1.4 15.3 2.6 22.4 3.5 6.2 7.5 9.5 14.3 11.5 6.8 2.1 10.5 2 16.8 -0.3z"/>
  <path d="M711.5 238.1 c-0.6 -0.6 -0.8 -12.6 -0.5 -33.3 l0.5 -32.3 2.5 0 c2.1 0 2.6 0.6 3.1 4 0.3 2.2 0.7 3.6 0.8 3 0.2 -1.7 6.4 -5.4 11.6 -7 8.7 -2.6 12.5 -1.6 12.5 3.1 0 2.5 -1.4 3.1 -8 3.2 -2.6 0.1 -5.4 0.9 -6.9 2 -3.5 2.6 -8 8.4 -8.8 11.3 -0.4 1.3 -0.7 12.3 -0.8 24.4 l0 22 -2.5 0.3 c-1.4 0.2 -3 -0.2 -3.5 -0.7z"/>
  <path d="M749.7 236.8 c-0.8 -3.4 -0.1 -91.3 0.7 -92.7 1.1 -1.7 5.3 -1.3 6 0.5 0.3 0.9 0.6 16.1 0.6 33.9 l0 32.3 11.9 -11.7 c28.6 -27.9 29.8 -28.9 33.7 -27.4 2.9 1.1 0.8 4.1 -10.5 14.8 -6.4 6.1 -11.9 11.5 -12.3 12 -0.4 0.6 3.1 6.7 7.8 13.5 4.6 6.9 9.5 14.1 10.8 16 1.3 1.9 3.3 4.6 4.5 5.9 2.4 2.8 1.4 5.1 -2.4 5.1 -2.4 0 -5.1 -3.2 -16 -19 -3.2 -4.7 -6.2 -8.7 -6.5 -9 -0.4 -0.3 -1.5 -2 -2.4 -3.8 l-1.7 -3.4 -6.7 6.3 c-9.6 9.1 -10.1 10.1 -10.4 19.9 l-0.3 8.5 -3.1 0.3 c-2.6 0.3 -3.3 -0.1 -3.7 -2z"/>
  <path d="M826.6 237.7 c-2.2 -0.7 -5.6 -2.6 -7.5 -4.4 -2 -1.8 -3.9 -3.3 -4.2 -3.3 -1.1 0 -6 -8 -7.6 -12.3 -2.1 -5.8 -2.4 -19.1 -0.6 -23.6 3.2 -8.3 4.9 -10.8 9.4 -14.6 13.4 -11.2 31.6 -11.1 44.2 0.4 1.5 1.3 2.7 3 2.7 3.7 0 0.6 0.7 1.7 1.4 2.4 3.2 2.6 6.6 18.1 4.5 20.6 -0.9 1.1 -6.1 1.4 -28.5 1.4 l-27.4 0 0 3.3 c0.1 5 4.9 12.7 10.3 16.4 7 4.7 14.5 6 22.7 3.9 3.6 -0.9 8 -2.7 9.8 -4 4 -2.8 7.2 -2.4 7.2 1 0 2.6 -5.9 7.1 -12.1 9.2 -4.3 1.5 -18.9 1.4 -24.3 -0.1z m35.4 -39.1 c0 -3 -4.4 -11.3 -7.3 -13.7 -10.8 -9 -26.4 -8.2 -35.8 1.8 -3.7 3.9 -7.4 11.7 -6.4 13.4 0.4 0.5 11 0.9 25.1 0.9 l24.4 0 0 -2.4z"/>
  <path d="M499.4 231.3 c1 -1.2 1.5 -2.7 1.1 -3.5 -0.7 -1 -0.5 -1.1 0.6 0 1.1 1 0.9 1.6 -1.1 3.5 -2.4 2.2 -2.4 2.2 -0.6 0z"/>
  <path d="M132.4 205 c0 -12.9 0.2 -18.2 0.3 -11.7 0.2 6.4 0.2 17 0 23.5 -0.1 6.4 -0.3 1.1 -0.3 -11.8z"/>
  <path d="M488.7 217 c2.3 -2.4 2.3 -2.4 4 -0.5 1.7 1.8 1.7 1.8 0 0.6 -1.5 -1.2 -2.1 -1.1 -4 0.5 l-2.2 1.8 2.2 -2.4z"/>
  <path d="M151.8 214.3 c1.2 -0.2 3 -0.2 4 0 0.9 0.3 -0.1 0.5 -2.3 0.4 -2.2 0 -3 -0.2 -1.7 -0.4z"/>
  <path d="M142.3 204 c0 -3.6 0.2 -5 0.4 -3.2 0.2 1.7 0.2 4.7 0 6.5 -0.2 1.7 -0.4 0.3 -0.4 -3.3z"/>
  <path d="M465.2 208.3 c5.9 -0.2 15.8 -0.2 22 0 6.2 0.1 1.4 0.3 -10.7 0.3 -12.1 0 -17.2 -0.2 -11.3 -0.3z"/>
  <path d="M506.3 201.5 c0 -3.8 0.2 -5.3 0.4 -3.2 0.2 2 0.2 5.2 0 7 -0.2 1.7 -0.4 0.1 -0.4 -3.8z"/>
  <path d="M428.3 201.5 c0 -3.3 0.2 -4.5 0.4 -2.7 0.2 1.8 0.2 4.5 0 6 -0.2 1.5 -0.4 0 -0.4 -3.3z"/>
  <path d="M473.8 195.3 c1.2 -0.2 3.2 -0.2 4.5 0 1.2 0.2 0.2 0.4 -2.3 0.4 -2.5 0 -3.5 -0.2 -2.2 -0.4z"/>
  <path d="M495.9 174.3 l-3.4 -3.8 3.8 3.4 c2 1.9 3.7 3.6 3.7 3.8 0 0.8 -0.8 0 -4.1 -3.4z"/>
  <path d="M225.3 169.5 c0 -2.7 0.2 -3.8 0.4 -2.2 0.2 1.5 0.2 3.7 0 5 -0.2 1.2 -0.4 0 -0.4 -2.8z"/>
  <path d="M314.3 168.5 c0 -2.2 0.2 -3 0.4 -1.7 0.2 1.2 0.2 3 0 4 -0.3 0.9 -0.5 -0.1 -0.4 -2.3z"/>
  <path d="M332.3 164.3 c0.9 -0.2 2.5 -0.2 3.5 0 0.9 0.3 0.1 0.5 -1.8 0.5 -1.9 0 -2.7 -0.2 -1.7 -0.5z"/>
  <path d="M383.3 164.3 c0.9 -0.2 2.5 -0.2 3.5 0 0.9 0.3 0.1 0.5 -1.8 0.5 -1.9 0 -2.7 -0.2 -1.7 -0.5z"/>
  <path d="M149.7 162.3 c1.8 -0.2 5 -0.2 7 0 2.1 0.2 0.7 0.4 -3.2 0.4 -3.8 0 -5.5 -0.2 -3.8 -0.4z"/>
  <path d="M262 154.3 c-2.5 -0.9 -7 -5.6 -7 -7.3 0 -0.9 -0.5 -2.1 -1.1 -2.7 -0.7 -0.7 -0.7 -2.2 0 -4.9 1.5 -5.3 1.9 -5.8 7 -8.4 3.5 -1.7 5.6 -2.1 9.8 -1.8 4.7 0.4 5.8 1 8.8 4.3 3 3.2 3.5 4.4 3.5 8.7 0 4.5 -0.4 5.4 -3.9 8.9 -3.6 3.7 -4.2 3.9 -9.7 3.8 -3.3 0 -6.6 -0.3 -7.4 -0.6z"/>
  <path d="M122.2 142.3 c7 -0.2 18.7 -0.2 26 0 7.3 0.1 1.6 0.3 -12.7 0.3 -14.3 0 -20.3 -0.2 -13.3 -0.3z"/>
 </g>
</svg>